<svg width="100" height="50" viewBox="0 0 100 50" fill="none" xmlns="http://www.w3.org/2000/svg">
<g clip-path="url(#clip0)">
<path d="M0 38.8235C0 38.8235 7.91667 39.4771 11.875 39.6078C15.8333 39.7385 19.7917 39.5424 23.75 39.6078C27.7083 39.6732 31.6667 40.2614 35.625 40C39.5833 39.7385 43.5417 38.2353 47.5 38.0392C51.4583 37.8431 55.4167 38.4967 59.375 38.8235C63.3333 39.1503 67.2917 39.8039 71.25 40C75.2083 40.196 79.1667 40.1307 83.125 40C87.0833 39.8692 95 39.2156 95 39.2156" stroke="#6DCFA0" stroke-opacity="0.6" stroke-width="3"/>
<path d="M95 41.2157C96.1046 41.2157 97 40.3203 97 39.2157C97 38.1111 96.1046 37.2157 95 37.2157C93.8954 37.2157 93 38.1111 93 39.2157C93 40.3203 93.8954 41.2157 95 41.2157Z" fill="#6DCFA0" stroke="#6DCFA0"/>
</g>
<defs>
<clipPath id="clip0">
<rect width="100" height="50" fill="white"/>
</clipPath>
</defs>
</svg>
