<svg width="101" height="50" viewBox="0 0 101 50" fill="none" xmlns="http://www.w3.org/2000/svg">
<path d="M98 41C98 41 90.3333 38.2561 86.5 37.4211C82.6667 36.586 78.8333 36.7053 75 35.9895C71.1667 35.2737 67.3333 33.4246 63.5 33.1263C59.6667 32.8281 55.8333 36.0491 52 34.2C48.1667 32.3509 44.3333 25.2526 40.5 22.0316C36.6667 18.8105 32.8333 15.4702 29 14.8737C25.1667 14.2772 21.3333 19.7649 17.5 18.4526C13.6667 17.1404 6 7 6 7" stroke="#007BFF" stroke-width="3"/>
<path d="M98 43C99.1046 43 100 42.1046 100 41C100 39.8954 99.1046 39 98 39C96.8954 39 96 39.8954 96 41C96 42.1046 96.8954 43 98 43Z" fill="#007BFF" stroke="#007BFF"/>
</svg>
